<?xml version="1.0" encoding="UTF-8" standalone="no"?>
<!-- Created with Inkscape (http://www.inkscape.org/) -->

<svg
   xmlns:dc="http://purl.org/dc/elements/1.1/"
   xmlns:cc="http://creativecommons.org/ns#"
   xmlns:rdf="http://www.w3.org/1999/02/22-rdf-syntax-ns#"
   xmlns:svg="http://www.w3.org/2000/svg"
   xmlns="http://www.w3.org/2000/svg"
   xmlns:sodipodi="http://sodipodi.sourceforge.net/DTD/sodipodi-0.dtd"
   xmlns:inkscape="http://www.inkscape.org/namespaces/inkscape"
   width="30"
   height="180"
   id="svg2"
   version="1.1"
   inkscape:version="0.48.2 r9819"
   sodipodi:docname="sprite.svg">
  <defs
     id="defs4" />
  <sodipodi:namedview
     id="base"
     pagecolor="#ffffff"
     bordercolor="#666666"
     borderopacity="1.0"
     inkscape:pageopacity="0.0"
     inkscape:pageshadow="2"
     inkscape:zoom="2.8284271"
     inkscape:cx="14.370809"
     inkscape:cy="175.61661"
     inkscape:document-units="px"
     inkscape:current-layer="layer1"
     showgrid="false"
     inkscape:window-width="1280"
     inkscape:window-height="752"
     inkscape:window-x="0"
     inkscape:window-y="0"
     inkscape:window-maximized="1">
    <inkscape:grid
       type="xygrid"
       id="grid2985"
       empspacing="5"
       visible="true"
       enabled="true"
       snapvisiblegridlinesonly="true"
       color="#000000"
       opacity="0.0627451"
       empcolor="#000000"
       empopacity="0.1254902" />
  </sodipodi:namedview>
  <metadata
     id="metadata7">
    <rdf:RDF>
      <cc:Work
         rdf:about="">
        <dc:format>image/svg+xml</dc:format>
        <dc:type
           rdf:resource="http://purl.org/dc/dcmitype/StillImage" />
        <dc:title></dc:title>
      </cc:Work>
    </rdf:RDF>
  </metadata>
  <g
     inkscape:groupmode="layer"
     id="layer2"
     inkscape:label="underlay"
     transform="translate(0,-872.36218)"
     style="display:none">
    <rect
       style="color:#000000;fill:#f2f2f2;fill-opacity:1;fill-rule:nonzero;stroke:none;stroke-width:2;marker:none;visibility:visible;display:inline;overflow:visible;enable-background:accumulate"
       id="rect3756"
       width="30"
       height="180"
       x="0"
       y="0"
       transform="translate(0,872.36218)" />
    <rect
       y="872.36218"
       x="0"
       height="30"
       width="30"
       id="rect3758"
       style="color:#000000;fill:#e6e6e6;fill-opacity:1;fill-rule:nonzero;stroke:none;stroke-width:2;marker:none;visibility:visible;display:inline;overflow:visible;enable-background:accumulate" />
  </g>
  <g
     inkscape:label="sprite"
     inkscape:groupmode="layer"
     id="layer1"
     transform="translate(0,-872.36218)"
     style="display:inline">
    <path
       style="color:#000000;fill:#ffffff;fill-opacity:1;fill-rule:nonzero;stroke:none;stroke-width:1;marker:none;visibility:visible;display:inline;overflow:visible;enable-background:accumulate"
       d="m 13,1031.3622 -1,1 0,1 -1,0 -1,1 0,1 10,0 0,-1 -1,-1 -1,0 0,-1 -1,-1 -4,0 z m 0,1 4,0 0,1 -4,0 0,-1 z m -2,4 0,1 0,5 1,1 6,0 1,-1 0,-5 0,-1 -1,0 -1,0 -1,0 -2,0 -1,0 -1,0 -1,0 z m 1.1875,1 0.8125,0 0,4 -0.8125,-4 z m 2,0 1.625,0 -0.8125,4 -0.8125,-4 z m 2.8125,0 0.8125,0 -0.8125,4 0,-4 z"
       id="path3769"
       inkscape:connector-curvature="0" />
    <g
       transform="matrix(0.92307692,0,0,0.92307692,126.94872,-197.126)"
       id="g13547"
       style="color:#000000;fill:#ffffff;fill-opacity:1;fill-rule:nonzero;stroke:none;stroke-width:1.08333337000000007;marker:none;visibility:visible;display:inline;overflow:visible;enable-background:accumulate">
      <path
         sodipodi:nodetypes="scsss"
         inkscape:connector-curvature="0"
         id="path13549"
         d="m -117.30555,1270.5566 c 0,2.5278 -3.61112,6.8612 -4.69445,8.3056 -1.08333,-1.4444 -4.69445,-5.7778 -4.69445,-8.3056 0,-2.5277 2.36258,-4.6944 4.69445,-4.6944 2.33187,0 4.69445,2.1667 4.69445,4.6944 z"
         style="color:#000000;fill:#ffffff;fill-opacity:1;fill-rule:nonzero;stroke:none;stroke-width:1.08333337000000007;marker:none;visibility:visible;display:inline;overflow:visible;enable-background:accumulate" />
    </g>
    <path
       style="color:#000000;fill:#ffffff;fill-opacity:1;fill-rule:nonzero;stroke:none;stroke-width:1;marker:none;visibility:visible;display:inline;overflow:visible;enable-background:accumulate"
       d="m 18,1001.3622 -1,1 3,3 1,-1 0,-1.5 -1.5,-1.5 -1.5,0 z m -2,2 -6.5,6.5 -0.5,3.5 3.5,-0.5 6.5,-6.5 -3,-3 z"
       id="path3193"
       inkscape:connector-curvature="0" />
    <rect
       style="color:#000000;fill:#ffffff;fill-opacity:1;fill-rule:nonzero;stroke:none;stroke-width:2;marker:none;visibility:visible;display:inline;overflow:visible;enable-background:accumulate"
       id="rect4036"
       width="10"
       height="10"
       x="10"
       y="942.36218" />
    <path
       style="color:#000000;fill:#ffffff;fill-opacity:1;fill-rule:nonzero;stroke:none;stroke-width:2;marker:none;visibility:visible;display:inline;overflow:visible;enable-background:accumulate"
       d="M 9 39 L 9 42 L 10 42 L 10 48 L 9 48 L 9 51 L 12 51 L 12 50 L 18 50 L 18 51 L 21 51 L 21 48 L 20 48 L 20 42 L 21 42 L 21 39 L 18 39 L 18 40 L 12 40 L 12 39 L 9 39 z M 10 40 L 11 40 L 11 41 L 10 41 L 10 40 z M 19 40 L 20 40 L 20 41 L 19 41 L 19 40 z M 12 42 L 18 42 L 18 48 L 12 48 L 12 42 z M 10 49 L 11 49 L 11 50 L 10 50 L 10 49 z M 19 49 L 20 49 L 20 50 L 19 50 L 19 49 z "
       transform="translate(0,872.36218)"
       id="rect4043" />
    <path
       style="color:#000000;fill:#ffffff;fill-opacity:1;fill-rule:nonzero;stroke:none;stroke-width:2;marker:none;visibility:visible;display:inline;overflow:visible;enable-background:accumulate"
       d="M 18 9 L 18 11 L 11 18 L 9 18 L 9 21 L 12 21 L 12 19 L 19 12 L 21 12 L 21 9 L 18 9 z M 19 10 L 20 10 L 20 11 L 19 11 L 19 10 z M 10 19 L 11 19 L 11 20 L 10 20 L 10 19 z "
       transform="translate(0,872.36218)"
       id="path4065" />
  </g>
</svg>
